<svg width="84" height="18" viewBox="0 0 84 18" fill="none" xmlns="http://www.w3.org/2000/svg">
<path d="M12.95 18H2.775L0.25 14.675V3.825L2.775 0.499999H12.95L15.45 3.825V14.675L12.95 18ZM13.125 4.625L11.8 2.85H3.925L2.575 4.625V13.875L3.925 15.65H11.8L13.125 13.875V4.625ZM28.4252 10.425H28.0002L31.2752 18H28.7002L25.4752 10.425H20.2502V18H17.9502V0.499999H30.0252L31.3502 3.65V6.25L28.4252 10.425ZM29.0252 4.125L28.5002 2.85H20.2752V8.1H27.2502L29.0252 5.5V4.125ZM46.0246 18H33.5996V0.499999H46.0246L47.3246 3.7V6.275L45.2246 9.275L47.3246 12.225V14.8L46.0246 18ZM44.9996 4.15L44.4496 2.85H35.9246V8.125H43.1996L44.9996 5.525V4.15ZM44.9996 12.975L43.1996 10.475H35.9246V15.65H44.4496L44.9996 14.35V12.975ZM49.5664 18V0.499999H51.8164V18H49.5664ZM63.3771 2.85L62.0771 4.625V18H59.7521V4.625L58.4271 2.85H54.0771V0.499999H59.5521L60.9021 2.275L62.2521 0.499999H67.8021V2.85H63.3771ZM76.3498 9.075L76.9248 9.925L81.3748 2.825V0.499999H83.6998V3.5L78.1748 12.3H78.1248V18H74.6998V15.65H75.7998V12.3H75.6748L69.7998 3.45V0.499999H72.1248V2.75L76.3498 9.075Z" fill="black"/>
</svg>
