<svg width="24" height="25" viewBox="0 0 24 25" fill="none" xmlns="http://www.w3.org/2000/svg">
<g id="025.&#225;&#132;&#128;&#225;&#133;&#165;&#225;&#134;&#183;&#225;&#132;&#137;&#225;&#133;&#162;&#225;&#134;&#168; 1">
<path id="Vector" d="M11 5.5C14.31 5.5 17 8.19 17 11.5C17 14.81 14.31 17.5 11 17.5C7.69 17.5 5 14.81 5 11.5C5 8.19 7.69 5.5 11 5.5ZM11 3.5C6.58 3.5 3 7.08 3 11.5C3 15.92 6.58 19.5 11 19.5C15.42 19.5 19 15.92 19 11.5C19 7.08 15.42 3.5 11 3.5Z" fill="#7E7E7E"/>
<path id="Vector_2" d="M17.7649 16.4962C17.2767 16.008 16.4853 16.0081 15.9971 16.4962C15.509 16.9844 15.509 17.7758 15.9971 18.264L19.2286 21.4955C19.7168 21.9836 20.5082 21.9836 20.9964 21.4955C21.4845 21.0073 21.4845 20.2159 20.9964 19.7277L17.7649 16.4962Z" fill="#7E7E7E"/>
</g>
</svg>
